<svg height="80" viewBox="0 0 650 80" width="650" xmlns="http://www.w3.org/2000/svg" xmlns:xlink="http://www.w3.org/1999/xlink">
  <mask id="a" fill="#fff">
    <path d="m0 80h650v-80h-650z" fill="#fff" fill-rule="evenodd"/>
  </mask>
  <g fill="none" fill-rule="evenodd">
    <g fill="#020816" transform="scale(2.5) translate(50, 8)">
      <path d="m58.2355684 5.9562145h-6.6100865v18.1287738h-4.3248274v-18.1287738h-6.6100864v-3.68769056h17.5450003z"/>
      <path d="m67.8395461 12.13205c-.8043843-.2159383-1.4825576-.308005-2.007595-.308005-2.1321231 0-3.459862 1.6906797-3.459862 4.5179649v7.743648h-4.0168728v-15.70156033h3.7392088v2.30501583c.8329921-1.69067973 2.1321231-2.52095414 3.9546088-2.52095414.6781733 0 1.5128482.15400251 2.5006589.4603336z"/>
      <path d="m70.5872419 24.0846536h4.0168728v-15.7015604h-4.0168728zm0-18.06851203h4.0168728v-3.74795241h-4.0168728z" mask="url(#a)"/>
      <path d="m88.8105838 12.9315239c-1.854459-1.4446105-3.0273792-1.8446823-4.7270195-1.8446823-1.6054029 0-2.6554777.6160101-2.6554777 1.5684821 0 .336462.1245281.5842052.3382452.7666647.4947468.3699408 1.1140217.5222694 3.3386995 1.0144078 4.4459899.982603 6.1153397 2.0890776 6.1153397 5.0101035 0 3.0716805-2.5646059 5.1306271-6.7649052 5.1306271-2.9970886 0-5.1292117-.7683386-7.6298707-2.9812877l2.3172325-2.5795421c1.1426295.9206672 2.0681762 1.5350033 2.840587 1.8731392.7724108.3063311 1.6054029.4603336 2.5646059.4603336 1.6070856 0 2.7497151-.5825312 2.7497151-1.6588748 0-.3983978-.1548187-.7365338-.4644561-.9524721-.3079547-.2460692-.6781734-.4302027-1.1123389-.5222694-.4324828-.1221976-1.2048936-.3063311-2.3155496-.5540742-4.5116196-.982603-5.8073851-2.0890776-5.8073851-4.8845579 0-2.7034137 2.4400778-4.91636279 6.5797959-4.91636279 2.7177417 0 4.6008086.64446703 6.7951958 2.45734439z" mask="url(#a)"/>
      <path d="m100.113697 16.9250433-2.2549683 2.273211v4.8862319h-4.0168728v-21.81646444h4.0168728v12.50768224l6.0547583-6.39277819h4.819574l-5.807385 5.96090149 6.11534 9.7406589h-4.477963z" mask="url(#a)"/>
      <path d="m120.560539 14.4059305c-.154819-2.1208824-1.452267-3.4098164-3.58439-3.4098164-2.068176 0-3.335334 1.288934-3.79979 3.4098164zm3.922635 7.0975071c-2.222995 2.24308-4.355118 3.0733544-7.042569 3.0733544-5.097238 0-8.277753-3.2574879-8.277753-8.2659174 0-4.8845579 3.025696-8.45005078 7.937825-8.45005078 4.725337 0 7.382497 2.91935198 7.382497 7.83571468 0 .5842052-.030291 1.1064746-.062264 1.5668082h-11.335423c.368536 2.4272135 1.822486 3.9337598 4.447673 3.9337598.895256 0 1.637376-.1540025 2.254968-.4620076.649566-.306331 1.450584-.8587314 2.440078-1.6906797z" mask="url(#a)"/>
      <path d="m127.351864 24.0846536h4.016873v-21.81646444h-4.016873z" mask="url(#a)"/>
      <path d="m145.546262 14.4059305c-.154819-2.1208824-1.452267-3.4098164-3.58439-3.4098164-2.068177 0-3.335334 1.288934-3.79979 3.4098164zm3.922635 7.0975071c-2.222995 2.24308-4.355118 3.0733544-7.042569 3.0733544-5.097238 0-8.277754-3.2574879-8.277754-8.2659174 0-4.8845579 3.025697-8.45005078 7.937826-8.45005078 4.725336 0 7.382497 2.91935198 7.382497 7.83571468 0 .5842052-.030291 1.1064746-.062264 1.5668082h-11.335423c.368536 2.4272135 1.822485 3.9337598 4.447672 3.9337598.895257 0 1.637377-.1540025 2.254969-.4620076.649565-.306331 1.450584-.8587314 2.440078-1.6906797z" mask="url(#a)"/>
      <path d="m163.889588 20.3971304h10.194477v3.6876905h-14.519304v-21.81646435h4.324827z" mask="url(#a)"/>
      <path d="m187.052994 16.7713756-2.657161.5540743c-2.687451.5842051-3.954609 1.1667364-3.954609 2.5192802 0 .9842769.896939 1.5668081 2.41147 1.5668081 2.31555 0 4.2003-1.1684103 4.2003-3.7178215zm3.83008 7.3134453h-3.612998v-1.6287439c-.989493 1.3525438-2.719424 2.1526873-5.097238 2.1526873-3.244462 0-5.654249-1.5082203-5.654249-4.4878341 0-3.3177497 2.62687-4.7924911 6.827169-5.5306988l3.707236-.6762719v-.3682669c0-1.5048724-1.112339-2.3954086-2.965115-2.3954086-.989494 0-1.824169.1824595-2.470369.5825312-.649565.4000717-1.482557 1.0445388-2.44176 1.9668799l-2.534316-2.3050158c2.009278-2.36527773 4.326511-3.53368809 7.38418-3.53368809 4.417383 0 6.85746 2.21294909 6.85746 5.62276559z" mask="url(#a)"/>
      <path d="m202.249125 11.3637114c-2.349206 0-3.9849 1.906618-3.9849 4.8544269 0 2.9812878 1.635694 4.8242961 3.952926 4.8242961 2.317233 0 3.862054-1.8748132 3.862054-4.8242961 0-2.9478089-1.482557-4.8544269-3.83008-4.8544269m.895256 13.1504752c-2.222995 0-3.890662-.7984695-5.003001-2.4272134v1.9986847h-3.739209v-21.81813832h4.016873v7.77545282c1.14263-1.41447954 2.717742-2.12088237 4.75731-2.12088237 4.045481 0 6.980305 3.31942367 6.980305 8.29604827 0 5.0402344-2.995405 8.2960483-7.012278 8.2960483" mask="url(#a)"/>
      <path d="m223.590045 12.9315239c-1.854459-1.4446105-3.02738-1.8446823-4.72702-1.8446823-1.605403 0-2.655478.6160101-2.655478 1.5684821 0 .336462.124528.5842052.338246.7666647.494746.3699408 1.114021.5222694 3.338699 1.0144078 4.44599.982603 6.11534 2.0890776 6.11534 5.0101035 0 3.0716805-2.564606 5.1306271-6.764905 5.1306271-2.997089 0-5.129212-.7683386-7.629871-2.9812877l2.317232-2.5795421c1.14263.9206672 2.068177 1.5350033 2.840587 1.8731392.772411.3063311 1.605403.4603336 2.564606.4603336 1.607086 0 2.749715-.5825312 2.749715-1.6588748 0-.3983978-.154818-.7365338-.464456-.9524721-.307954-.2460692-.678173-.4302027-1.112339-.5222694-.432482-.1221976-1.204893-.3063311-2.315549-.5540742-4.51162-.982603-5.807385-2.0890776-5.807385-4.8845579 0-2.7034137 2.440077-4.91636279 6.579796-4.91636279 2.717741 0 4.600808.64446703 6.795195 2.45734439z" mask="url(#a)"/>
    </g>
    <g transform="scale(2.5)">
      <path d="m23.0276026-.00050218-8.7926939 5.05027799-8.79437675-5.05027799-2.41820118 4.16643749 8.79437673 5.050278v10.09888209h4.8364024v-10.09888209l8.7926939-5.050278z" fill="#48cfa0" mask="url(#a)"/>
      <path d="m4.83657064 14.05524c0-1.0395169.17332966-2.0505769.49811242-3.0063968l-4.24068683-2.4355832c-.71351238 1.7023973-1.09382795 3.5420577-1.09382795 5.44198 0 3.7831052 1.48087477 7.3385545 4.1683259 10.0118372 2.1590481 2.1476654 4.84481642 3.4566868 7.64838162 3.9320858v-4.9213846c-1.5498701-.4084414-3.01559954-1.2069109-4.22722435-2.412148-1.77536691-1.766007-2.75308081-4.1128714-2.75308081-6.6103904" fill="#48cfa0" mask="url(#a)"/>
      <path d="m27.3741383 8.61125127-4.2406868 2.43558323c.3247827.9558199.4997952 1.9685538.4997952 3.0080707 0 2.497519-.9777139 4.8443834-2.7530808 6.6103904-1.2082592 1.2018892-2.6672574 1.9986848-4.2103962 2.4088002v4.9230585c2.7951511-.4804209 5.475871-1.7877683 7.6298707-3.9304119 2.6891339-2.6732827 4.1700087-6.228732 4.1700087-10.0118372 0-1.8999222-.3819984-3.7412566-1.0955108-5.44365393" fill="#48cfa0" mask="url(#a)"/>
    </g>
  </g>
</svg>
